<svg width="60" height="60" viewBox="0 0 60 60" fill="none" xmlns="http://www.w3.org/2000/svg">
<g clip-path="url(#clip0_117_806)">
<path d="M55.3479 31.1019V3.77964C55.3479 2.80489 54.5577 2.01465 53.5829 2.01465H6.29511C5.32036 2.01465 4.53012 2.80489 4.53012 3.77964V33.28C3.67869 33.404 2.84632 33.7346 2.10997 34.2812C-0.211348 35.9273 -0.760378 39.6109 1.18405 41.8827L9.13392 51.5204C14.0549 57.2798 19.2825 57.9854 27.0539 57.9854C33.7228 57.9854 36.7043 58.0148 42.5165 56.6905L48.176 55.3369C49.0936 56.6184 50.5505 57.4485 52.1883 57.4485H54.9762C57.7463 57.4485 60 55.0744 60 52.1561V36.3784C60.0001 33.592 57.9449 31.3031 55.3479 31.1019ZM47.4147 34.7326L45.063 33.5382C41.1964 31.5865 36.7259 31.5142 32.7982 33.3403C31.7266 33.7618 29.3894 35.1759 28.1771 35.1286H20.0167C17.3099 35.1286 15.1077 37.3307 15.1077 40.0376V41.3247C15.0925 41.3087 15.0766 41.2936 15.0617 41.2773L9.23429 34.9519C8.88164 34.5692 8.48546 34.2489 8.06022 33.9919V16.481H22.5041V22.951C22.5041 23.9257 23.2943 24.7159 24.2691 24.7159H35.4063C36.381 24.7159 37.1712 23.9257 37.1712 22.951V16.481H51.8181V31.1018C49.7559 31.2611 48.0363 32.7364 47.4147 34.7326ZM26.0339 16.481H33.6412V21.186H26.0339V16.481ZM51.818 12.951H37.1712V5.54463H51.8181V12.951H51.818ZM33.6413 5.54463V12.9511H26.034V5.54463H33.6413ZM22.504 5.54463V12.9511H8.0601V5.54463H22.504ZM41.6973 53.2568C36.3282 54.4865 33.0946 54.4367 27.1172 54.4367C19.8219 54.4367 16.297 54.3188 11.8572 49.274L3.90731 39.6363C2.5245 37.8357 5.02914 35.7101 6.63811 37.3435L12.4655 43.669C14.0056 45.2941 15.9437 46.1885 18.3325 46.2411H34.4889C35.4637 46.2411 36.2539 45.4508 36.2539 44.4761C36.2539 43.5013 35.4637 42.7111 34.4889 42.7111H18.6376V40.0373C18.6376 39.277 19.2561 38.6583 20.0166 38.6583H28.177C30.0154 38.79 32.6689 37.2549 34.2863 36.541C37.228 35.1733 40.5763 35.2274 43.4684 36.6872L47.1647 38.5646V51.9489L41.6973 53.2568ZM56.4701 52.156C56.4701 53.1278 55.8 53.9184 54.9763 53.9184H52.1884C51.3647 53.9184 50.6947 53.1278 50.6947 52.156V36.3784C50.6947 35.4066 51.3648 34.6159 52.1884 34.6159H54.9763C55.8 34.6159 56.4701 35.4065 56.4701 36.3784V52.156Z" fill="#242424"/>
</g>
<defs>
<clipPath id="clip0_117_806">
<rect width="60" height="60" fill="white"/>
</clipPath>
</defs>
</svg>
